<svg width="31" height="31" viewBox="0 0 31 31" fill="none" xmlns="http://www.w3.org/2000/svg">
<mask id="mask0_1_7982" style="mask-type:luminance" maskUnits="userSpaceOnUse" x="0" y="0" width="31" height="31">
<path d="M0.5 0.303711H30.5V30.3037H0.5V0.303711Z" fill="white"/>
</mask>
<g mask="url(#mask0_1_7982)">
<mask id="mask1_1_7982" style="mask-type:luminance" maskUnits="userSpaceOnUse" x="0" y="0" width="31" height="31">
<path d="M0.5 0.303711H30.5V30.3037H0.5V0.303711Z" fill="white"/>
</mask>
<g mask="url(#mask1_1_7982)">
<path d="M23.8892 15.69C23.8892 14.5781 23.6745 13.5146 23.245 12.4996C22.8299 11.5188 22.244 10.6499 21.4871 9.89295C20.7301 9.13599 19.8612 8.55001 18.8805 8.13501C17.8654 7.70552 16.8019 7.49077 15.69 7.49077C14.5781 7.49077 13.5146 7.70552 12.4996 8.13501C11.5188 8.55002 10.6499 9.136 9.89295 9.89295C9.136 10.6499 8.55002 11.5188 8.13501 12.4996C7.70552 13.5146 7.49077 14.5781 7.49077 15.69C7.49077 16.8019 7.70552 17.8654 8.13501 18.8805C8.55001 19.8612 9.13599 20.7301 9.89295 21.4871C10.6499 22.244 11.5188 22.8299 12.4996 23.245C13.5146 23.6745 14.5781 23.8892 15.69 23.8892C16.8019 23.8892 17.8654 23.6745 18.8805 23.245C19.8612 22.8299 20.7301 22.244 21.4871 21.4871C22.244 20.7301 22.8299 19.8612 23.245 18.8805C23.6745 17.8654 23.8892 16.8019 23.8892 15.69ZM25.38 15.69C25.38 17.0035 25.126 18.2607 24.6179 19.4614C24.1274 20.6206 23.4352 21.6472 22.5412 22.5412C21.6472 23.4352 20.6206 24.1274 19.4614 24.6179C18.2607 25.126 17.0035 25.38 15.69 25.38C14.3765 25.38 13.1194 25.126 11.9187 24.6179C10.7594 24.1274 9.73277 23.4352 8.83881 22.5412C7.94484 21.6472 7.25261 20.6206 6.76209 19.4614C6.25403 18.2607 6 17.0035 6 15.69C6 14.3765 6.25403 13.1194 6.76209 11.9187C7.25261 10.7594 7.94484 9.73277 8.83881 8.83881C9.73277 7.94485 10.7594 7.25261 11.9187 6.76209C13.1194 6.25403 14.3765 6 15.69 6C17.0035 6 18.2607 6.25403 19.4614 6.76209C20.6206 7.25261 21.6472 7.94484 22.5412 8.83881C23.4351 9.73277 24.1274 10.7594 24.6179 11.9187C25.126 13.1194 25.38 14.3765 25.38 15.69Z" fill="#FF8000"/>
<path fill-rule="evenodd" clip-rule="evenodd" d="M20.6421 11.3929C20.3269 11.1281 19.8567 11.169 19.5919 11.4842L13.882 18.2817L11.7721 15.9373C11.4967 15.6313 11.0254 15.6065 10.7194 15.8819C10.4134 16.1573 10.3886 16.6286 10.664 16.9346L13.3474 19.9161C13.3706 19.9419 13.3955 19.966 13.422 19.9883C13.4977 20.0518 13.5827 20.0985 13.6769 20.1283C13.7712 20.158 13.8675 20.1687 13.966 20.1601C14.0645 20.1515 14.1576 20.1244 14.2453 20.0788C14.333 20.0333 14.4086 19.9726 14.4722 19.8969L20.7334 12.4431C20.9982 12.1279 20.9573 11.6577 20.6421 11.3929Z" fill="#FF8000"/>
</g>
</g>
</svg>
