<svg width="31" height="31" viewBox="0 0 31 31" fill="none" xmlns="http://www.w3.org/2000/svg">
<mask id="mask0_1_7997" style="mask-type:luminance" maskUnits="userSpaceOnUse" x="0" y="0" width="31" height="31">
<path d="M0.5 0.303711H30.5V30.3037H0.5V0.303711Z" fill="white"/>
</mask>
<g mask="url(#mask0_1_7997)">
<mask id="mask1_1_7997" style="mask-type:luminance" maskUnits="userSpaceOnUse" x="0" y="0" width="31" height="31">
<path d="M0.5 0.303711H30.5V30.3037H0.5V0.303711Z" fill="white"/>
</mask>
<g mask="url(#mask1_1_7997)">
</g>
<g clip-path="url(#clip0_1_7997)">
<mask id="mask2_1_7997" style="mask-type:luminance" maskUnits="userSpaceOnUse" x="3" y="3" width="25" height="25">
<path d="M3.31055 3.11426H27.6905V27.4943H3.31055V3.11426Z" fill="white"/>
</mask>
<g mask="url(#mask2_1_7997)">
<mask id="mask3_1_7997" style="mask-type:luminance" maskUnits="userSpaceOnUse" x="3" y="3" width="25" height="25">
<path d="M3.31055 3.11426H27.6905V27.4943H3.31055V3.11426Z" fill="white"/>
</mask>
<g mask="url(#mask3_1_7997)">
<path d="M15.5001 6.92316C14.3636 6.92316 13.2766 7.14266 12.2391 7.58166C11.2366 8.00585 10.3485 8.60479 9.57477 9.37849C8.80108 10.1522 8.20214 11.0403 7.77794 12.0428C7.33895 13.0803 7.11945 14.1673 7.11945 15.3038C7.11945 16.4403 7.33895 17.5273 7.77794 18.5649C8.20213 19.5673 8.80108 20.4554 9.57477 21.2291C10.3485 22.0028 11.2366 22.6017 12.2391 23.0259C13.2766 23.4649 14.3636 23.6844 15.5001 23.6844C16.6366 23.6844 17.7236 23.4649 18.7611 23.0259C19.7636 22.6017 20.6517 22.0028 21.4254 21.2291C22.1991 20.4554 22.798 19.5673 23.2222 18.5649C23.6612 17.5273 23.8807 16.4403 23.8807 15.3038C23.8807 14.1673 23.6612 13.0803 23.2222 12.0428C22.798 11.0403 22.1991 10.1522 21.4254 9.37849C20.6517 8.60479 19.7636 8.00584 18.7611 7.58166C17.7236 7.14266 16.6366 6.92316 15.5001 6.92316ZM15.5001 5.39941C16.8427 5.39941 18.1276 5.65906 19.3549 6.17836C20.5398 6.67973 21.5891 7.38729 22.5029 8.30102C23.4165 9.21477 24.1241 10.2641 24.6255 11.449C25.1448 12.6763 25.4045 13.9612 25.4045 15.3038C25.4045 16.6464 25.1448 17.9313 24.6255 19.1586C24.1242 20.3435 23.4166 21.3928 22.5029 22.3066C21.5891 23.2203 20.5398 23.9279 19.3549 24.4292C18.1276 24.9485 16.8427 25.2082 15.5001 25.2082C14.1575 25.2082 12.8726 24.9485 11.6453 24.4292C10.4604 23.9279 9.41106 23.2203 8.49731 22.3066C7.58357 21.3928 6.87602 20.3435 6.37465 19.1586C5.85535 17.9313 5.5957 16.6464 5.5957 15.3038C5.5957 13.9612 5.85535 12.6763 6.37465 11.449C6.87602 10.2641 7.58357 9.21477 8.49731 8.30102C9.41106 7.38729 10.4604 6.67973 11.6453 6.17836C12.8726 5.65906 14.1575 5.39941 15.5001 5.39941Z" fill="#FF8000"/>
<path fillRule="evenodd" clipRule="evenodd" d="M15.5002 8.44629C15.0794 8.44629 14.7383 8.7874 14.7383 9.20816V16.065C14.7383 16.1151 14.7432 16.1646 14.7529 16.2137C14.7627 16.2627 14.7771 16.3104 14.7963 16.3566C14.8154 16.4028 14.8389 16.4467 14.8667 16.4883C14.8945 16.5299 14.9261 16.5684 14.9614 16.6038C14.9968 16.6391 15.0353 16.6707 15.0769 16.6985C15.1185 16.7263 15.1624 16.7498 15.2086 16.7689C15.2548 16.7881 15.3025 16.8025 15.3515 16.8123C15.4006 16.822 15.4501 16.8269 15.5002 16.8269H20.0714C20.4922 16.8269 20.8333 16.4858 20.8333 16.065C20.8333 15.6443 20.4922 15.3032 20.0714 15.3032H16.262V9.20816C16.262 8.7874 15.9209 8.44629 15.5002 8.44629Z" fill="#FF8000"/>
</g>
</g>
</g>
</g>
<defs>
<clipPath id="clip0_1_7997">
<rect width="24.38" height="24.38" fill="white" transform="translate(3.31055 3.11426)"/>
</clipPath>
</defs>
</svg>
